REM DIRINDEX 1\2,1\3
REM DIRNAME folder01,folder02,folder03
TITLE ""
FILE "DISC1Track13.mp3" MP3
  TRACK 01 AUDIO
    TITLE "0:"
    INDEX 01 00:00:00
  TRACK 02 AUDIO
    TITLE "3:cjc133_0554"
    INDEX 01 00:00:21
  TRACK 03 AUDIO
    TITLE "0:"
    INDEX 01 00:01:32
  TRACK 04 AUDIO
    TITLE "2:cjc133_0555"
    INDEX 01 00:02:12
  TRACK 05 AUDIO
    TITLE "2:cjc133_0556"
    INDEX 01 00:05:12
  TRACK 06 AUDIO
    TITLE "2:cjc133_0557"
    INDEX 01 00:08:13
  TRACK 07 AUDIO
    TITLE "0:"
    INDEX 01 00:10:21
  TRACK 08 AUDIO
    TITLE "2:cjc133_0558"
    INDEX 01 00:10:65
  TRACK 09 AUDIO
    TITLE "2:cjc133_0559"
    INDEX 01 00:12:52
  TRACK 10 AUDIO
    TITLE "2:cjc133_0560"
    INDEX 01 00:15:56
  TRACK 11 AUDIO
    TITLE "0:"
    INDEX 01 00:17:63
  TRACK 12 AUDIO
    TITLE "2:cjc133_0561"
    INDEX 01 00:18:44
  TRACK 13 AUDIO
    TITLE "2:cjc133_0562"
    INDEX 01 00:20:73
  TRACK 14 AUDIO
    TITLE "2:cjc133_0563"
    INDEX 01 00:24:02
  TRACK 15 AUDIO
    TITLE "0:"
    INDEX 01 00:26:07
  TRACK 16 AUDIO
    TITLE "2:cjc133_0564"
    INDEX 01 00:26:60
  TRACK 17 AUDIO
    TITLE "2:cjc133_0565"
    INDEX 01 00:28:72
  TRACK 18 AUDIO
    TITLE "2:cjc133_0566"
    INDEX 01 00:31:00
  TRACK 19 AUDIO
    TITLE "0:"
    INDEX 01 00:32:13
  TRACK 20 AUDIO
    TITLE "2:cjc133_0567"
    INDEX 01 00:32:60
  TRACK 21 AUDIO
    TITLE "2:cjc133_0568"
    INDEX 01 00:34:06
  TRACK 22 AUDIO
    TITLE "2:cjc133_0569"
    INDEX 01 00:36:40
  TRACK 23 AUDIO
    TITLE "0:"
    INDEX 01 00:38:00
  TRACK 24 AUDIO
    TITLE "2:cjc133_0570"
    INDEX 01 00:38:55
  TRACK 25 AUDIO
    TITLE "2:cjc133_0571"
    INDEX 01 00:41:04
  TRACK 26 AUDIO
    TITLE "2:cjc133_0572"
    INDEX 01 00:43:42
  TRACK 27 AUDIO
    TITLE "0:"
    INDEX 01 00:45:22
  TRACK 28 AUDIO
    TITLE "2:cjc133_0573"
    INDEX 01 00:45:67
  TRACK 29 AUDIO
    TITLE "2:cjc133_0574"
    INDEX 01 00:47:40
  TRACK 30 AUDIO
    TITLE "2:cjc133_0575"
    INDEX 01 00:50:03
  TRACK 31 AUDIO
    TITLE "0:"
    INDEX 01 00:51:46
  TRACK 32 AUDIO
    TITLE "2:cjc133_0576"
    INDEX 01 00:52:26
  TRACK 33 AUDIO
    TITLE "2:cjc133_0577"
    INDEX 01 00:53:64
  TRACK 34 AUDIO
    TITLE "2:cjc133_0578"
    INDEX 01 00:56:04
  TRACK 35 AUDIO
    TITLE "0:"
    INDEX 01 00:57:21
  TRACK 36 AUDIO
    TITLE "2:cjc133_0579"
    INDEX 01 00:57:72
  TRACK 37 AUDIO
    TITLE "2:cjc133_0580"
    INDEX 01 00:58:73
  TRACK 38 AUDIO
    TITLE "2:cjc133_0581"
    INDEX 01 01:01:70
  TRACK 39 AUDIO
    TITLE "0:"
    INDEX 01 01:03:67
  TRACK 40 AUDIO
    TITLE "2:cjc133_0582"
    INDEX 01 01:04:45
  TRACK 41 AUDIO
    TITLE "2:cjc133_0583"
    INDEX 01 01:06:04
  TRACK 42 AUDIO
    TITLE "2:cjc133_0584"
    INDEX 01 01:09:01
  TRACK 43 AUDIO
    TITLE "0:"
    INDEX 01 01:11:03
  TRACK 44 AUDIO
    TITLE "2:cjc133_0585"
    INDEX 01 01:11:56
  TRACK 45 AUDIO
    TITLE "2:cjc133_0586"
    INDEX 01 01:13:51
  TRACK 46 AUDIO
    TITLE "2:cjc133_0587"
    INDEX 01 01:16:50
  TRACK 47 AUDIO
    TITLE "0:"
    INDEX 01 01:18:49
  TRACK 48 AUDIO
    TITLE "2:cjc133_0588"
    INDEX 01 01:19:27
  TRACK 49 AUDIO
    TITLE "2:cjc133_0589"
    INDEX 01 01:22:19
  TRACK 50 AUDIO
    TITLE "2:cjc133_0590"
    INDEX 01 01:25:62
  TRACK 51 AUDIO
    TITLE "0:"
    INDEX 01 01:28:49
  TRACK 52 AUDIO
    TITLE "2:cjc133_0591"
    INDEX 01 01:29:21
  TRACK 53 AUDIO
    TITLE "2:cjc133_0592"
    INDEX 01 01:33:01
  TRACK 54 AUDIO
    TITLE "2:cjc133_0593"
    INDEX 01 01:37:38
  TRACK 55 AUDIO
    TITLE "0:"
    INDEX 01 01:41:14
  TRACK 56 AUDIO
    TITLE "2:cjc133_0594"
    INDEX 01 01:41:63
  TRACK 57 AUDIO
    TITLE "2:cjc133_0595"
    INDEX 01 01:44:58
  TRACK 58 AUDIO
    TITLE "2:cjc133_0596"
    INDEX 01 01:48:67
  TRACK 59 AUDIO
    TITLE "0:"
    INDEX 01 01:52:10
  TRACK 60 AUDIO
    TITLE "2:cjc133_0597"
    INDEX 01 01:52:67
  TRACK 61 AUDIO
    TITLE "2:cjc133_0598"
    INDEX 01 01:55:46
  TRACK 62 AUDIO
    TITLE "2:cjc133_0599"
    INDEX 01 01:58:64
  TRACK 63 AUDIO
    TITLE "0:"
    INDEX 01 02:01:13
